{"title":"Fast Five 2011 TS H264-Wrath","uid":6360374,"size":1420111379,"categoryP":"video","categoryS":"movies","magnet":"?xt=urn:btih:71cd4b535de25c58c8f9729162198dd6d1e769d3&amp;dn=Fast+Five+2011+TS+H264-Wrath&amp;tr=udp%3A%2F%2Ftracker.openbittorrent.com%3A80&amp;tr=udp%3A%2F%2Fopen.demonii.com%3A1337&amp;tr=udp%3A%2F%2Ftracker.coppersurfer.tk%3A6969&amp;tr=udp%3A%2F%2Fexodus.desync.com%3A6969","seeders":0,"leechers":1,"uploader":"hiest","files":-1,"time":1304311245,"description":"##      ## ########     ###    ######## ##     ## \n##  ##  ## ##     ##   ## ##      ##    ##     ## \n##  ##  ## ##     ##  ##   ##     ##    ##     ## \n##  ##  ## ########  ##     ##    ##    ######### \n##  ##  ## ##   ##   #########    ##    ##     ## \n##  ##  ## ##    ##  ##     ##    ##    ##     ## \n ###  ###  ##     ## ##     ##    ##    ##     ## \n\n\nFile Name : Fast Five 2011 TS H264-Wrath.mp4\n\n File Size\n Format : MPEG-4\n Format profile : Base Media\n Codec ID : isom\n File size : 1.32 GiB\n Duration : 1h 56mn\n Overall bit rate : 1 622 Kbps\n\n Video\n ID : 1\n Format : AVC\n Format/Info : Advanced Video Codec\n Format profile : &lt;a class=&quot;__cf_email__&quot; href=&quot;/cdn-cgi/l/email-protection&quot; data-cfemail=&quot;145c7d737c5458203a25&quot;&gt;[email&amp;#160;protected]&lt;/a&gt;&lt;script cf-hash='f9e31' type=&quot;text/javascript&quot;&gt;\n/* &lt;![CDATA[ */!function(){try{var t=&quot;currentScript&quot;in document?document.currentScript:function(){for(var t=document.getElementsByTagName(&quot;script&quot;),e=t.length;e--;)if(t[e].getAttribute(&quot;cf-hash&quot;))return t[e]}();if(t&amp;&amp;t.previousSibling){var e,r,n,i,c=t.previousSibling,a=c.getAttribute(&quot;data-cfemail&quot;);if(a){for(e=&quot;&quot;,r=parseInt(a.substr(0,2),16),n=2;a.length-n;n+=2)i=parseInt(a.substr(n,2),16)^r,e+=String.fromCharCode(i);e=document.createTextNode(e),c.parentNode.replaceChild(e,c)}}}catch(u){}}();/* ]]&gt; */&lt;/script&gt;\n Format settings, CABAC : Yes\n Format settings, ReFrames : 3 frames\n Codec ID : avc1\n Codec ID/Info : Advanced Video Coding\n Duration : 1h 56mn\n Bit rate mode : Variable\n Bit rate : 1 499 Kbps\n Maximum bit rate : 4 913 Kbps\n Width : 720 pixels\n Height : 304 pixels\n Display aspect ratio : 2.35:1\n Frame rate mode : Constant\n Frame rate : 23.976 fps\n Resolution : 24 bits\n Colorimetry : 4:2:0\n Scan type : Progressive\n Bits/(Pixel*Frame) : 0.286\n Stream size : 1.22 GiB (92%)\n\n Audio #1\n ID : 2\n Format : AAC\n Format/Info : Advanced Audio Codec\n Format version : Version 4\n Format profile : LC\n Format settings, SBR : No\n Codec ID : 40\n Duration : 1h 56mn\n Bit rate mode : Variable\n Bit rate : 119 Kbps\n Maximum bit rate : 158 Kbps\n Channel(s) : 2 channels\n Channel positions : L R\n Sampling rate : 48.0 KHz\n Resolution : 16 bits\n Stream size : 99.4 MiB (7%)\n\n English SRT : Hard coded when needed\n Language : English\n\n &lt;a href=&quot;\nhttp://www.imdb.com/title/tt1596343&quot; rel=&quot;nofollow&quot; target=&quot;_NEW&quot;&gt;\nhttp://www.imdb.com/title/tt1596343&lt;/a&gt;\n\n\n\n Release Date: 29 April 2011 (USA) \n Genre: Action | Crime | Drama \n Plot: Former cop Brian O'Conner partners with ex-con Dom Toretto on the opposite side of the law. Since Brian and Mia Toretto broke Dom out of custody, they've blown across many borders to elude authorities. Now backed into a corner in Rio de Janeiro, they must pull one last job in order to gain their freedom. As they assemble their elite team of top racers, the unlikely allies know their only shot of getting out for good means confronting the corrupt businessman who wants them dead. But he's not the only one on their tail. Hard-nosed federal agent Luke Hobbs never misses his target. When he is assigned to track down Dom and Brian, he and his strike team launch an all-out assault to capture them. But as his men tear through Brazil, Hobbs learns he can't separate the good guys from the bad. Now, he must rely on his instincts to corner his prey... before someone else runs them down first. \n Cast:\n Vin Diesel ... Dominic Toretto\n Paul Walker ... Brian O'Conner\n Jordana Brewster ... Mia\n Tyrese Gibson ... Roman\n Ludacris ... Tej (as Chris 'Ludacris' Bridges)\n Matt Schulze ... Vince\n Sung Kang ... Han\n Gal Gadot ... Gisele\n Tego Calderon ... Leo\n Don Omar ... Santos\n Joaquim de Almeida ... Reyes\n Dwayne Johnson ... Hobbs\n Elsa Pataky ... Elena\n Michael Irby ... Zizi\n Fernando Chien ... Wilkes \n\n \n\n\n==================================    &lt;a href=&quot;\nhttp://thepiratebay.se/user/hiest&quot; rel=&quot;nofollow&quot; target=&quot;_NEW&quot;&gt;\nhttp://thepiratebay.se/user/hiest&lt;/a&gt;\n==================================\n\n\n\n\nScreen Pics:\n &lt;a href=&quot;\nhttp://www.imagebam.com/image/2c66aa130413459&quot; rel=&quot;nofollow&quot; target=&quot;_NEW&quot;&gt;\nhttp://www.imagebam.com/image/2c66aa130413459&lt;/a&gt;\n &lt;a href=&quot;\nhttp://www.imagebam.com/image/56e4c5130413464&quot; rel=&quot;nofollow&quot; target=&quot;_NEW&quot;&gt;\nhttp://www.imagebam.com/image/56e4c5130413464&lt;/a&gt;\n &lt;a href=&quot;\nhttp://www.imagebam.com/image/34a456130413473&quot; rel=&quot;nofollow&quot; target=&quot;_NEW&quot;&gt;\nhttp://www.imagebam.com/image/34a456130413473&lt;/a&gt;\n &lt;a href=&quot;\nhttp://www.imagebam.com/image/d5e640130413479&quot; rel=&quot;nofollow&quot; target=&quot;_NEW&quot;&gt;\nhttp://www.imagebam.com/image/d5e640130413479&lt;/a&gt;\n\n\n##      ## ########     ###    ######## ##     ## \n##  ##  ## ##     ##   ## ##      ##    ##     ## \n##  ##  ## ##     ##  ##   ##     ##    ##     ## \n##  ##  ## ########  ##     ##    ##    ######### \n##  ##  ## ##   ##   #########    ##    ##     ## \n##  ##  ## ##    ##  ##     ##    ##    ##     ## \n ###  ###  ##     ## ##     ##    ##    ##     ## \n","torrent":{"xt":"urn:btih:71cd4b535de25c58c8f9729162198dd6d1e769d3","amp;dn":"Fast+Five+2011+TS+H264-Wrath","amp;tr":["udp%3A%2F%2Ftracker.openbittorrent.com%3A80","udp%3A%2F%2Fopen.demonii.com%3A1337","udp%3A%2F%2Ftracker.coppersurfer.tk%3A6969","udp%3A%2F%2Fexodus.desync.com%3A6969"],"infoHash":"71cd4b535de25c58c8f9729162198dd6d1e769d3","infoHashBuffer":{"type":"Buffer","data":[113,205,75,83,93,226,92,88,200,249,114,145,98,25,141,214,209,231,105,211]},"announce":[],"urlList":[]}}